<svg version="1.1" id="svg103" width="1314" height="486" xmlns="http://www.w3.org/2000/svg"><defs id="defs87"><style id="style85">.a{fill:#231815}</style></defs><g id="g194" transform="translate(162.03 162.202)"><path class="a" d="M270.855 8.821a62.913 62.913 0 1 1 0 125.825 57.34 57.34 0 0 1-19.876-3.629c-5.468-2.269-9.941.718-9.941 6.638v14.454a10.8 10.8 0 0 1-10.764 10.764h-11.666a10.8 10.8 0 0 1-10.763-10.764v-88.37A45.11 45.11 0 0 0 202.22 43.8l-8.493-13.856a10.518 10.518 0 0 1 3.671-14.6l11.328-6.612a11.075 11.075 0 0 1 14.917 3.752l1.177 1.916a10.847 10.847 0 0 0 14.823 3.6s15.114-9.179 31.212-9.179zm-29.817 63.01a29.817 29.817 0 1 0 29.817-29.818 29.606 29.606 0 0 0-29.817 29.818z" id="path89" transform="translate(-4.118 -2.602)"/><path class="a" d="M396.715 120.156a10.8 10.8 0 0 0 10.764 10.763h42.893a10.8 10.8 0 0 1 10.764 10.764v11.666a10.8 10.8 0 0 1-10.764 10.763h-76.086a10.8 10.8 0 0 1-10.764-10.763V14.065A10.794 10.794 0 0 1 374.282 3.3h11.666a10.8 10.8 0 0 1 10.764 10.763z" id="path91" transform="translate(-4.118 -2.602)"/><path class="a" d="M480.95 47.258a10.8 10.8 0 0 0-10.763-10.763h-42.894a10.8 10.8 0 0 1-10.764-10.764V14.065A10.8 10.8 0 0 1 427.293 3.3h76.087a10.8 10.8 0 0 1 10.763 10.763v139.284a10.8 10.8 0 0 1-10.763 10.763h-11.663a10.794 10.794 0 0 1-10.763-10.763z" id="path93" transform="translate(-4.118 -2.602)"/><path class="a" d="M184.185 154.85c2.96 5.127.539 9.322-5.381 9.322H10.763c-5.92 0-8.341-4.195-5.381-9.322L89.4 9.321c2.96-5.126 7.8-5.126 10.763 0zM62.772 121.714c-2.96 5.127-.538 9.321 5.381 9.321h53.261c5.919 0 8.341-4.194 5.381-9.321l-26.63-46.126c-2.96-5.126-7.8-5.126-10.763 0z" id="path95" transform="translate(-4.118 -2.602)"/><path class="a" d="M622.31 160.967a79.183 79.183 0 1 1 79.184-79.185 79.275 79.275 0 0 1-79.184 79.185zm0-125.231a46.047 46.047 0 1 0 46.048 46.046 46.1 46.1 0 0 0-46.048-46.046Z" id="path97" transform="translate(-4.118 -2.602)"/><path class="a" d="M730.969 15.82a11.585 11.585 0 0 1 11.585-11.585h32.83c43.973 0 81.243 33.478 81.243 78.117s-34.819 78.116-81.243 78.116h-32.846a11.569 11.569 0 0 1-11.569-11.568Zm43.3 114.964c29.237 0 49.772-20.311 49.772-48.432 0-28.346-20.535-48.433-49.772-48.433a11.607 11.607 0 0 0-11.607 11.606v73.653a11.607 11.607 0 0 0 11.607 11.606z" id="path99" transform="translate(-4.118 -2.602)"/><path class="a" d="M939.918 164.2h-17.046c-29.49 0-44.008-12.967-44.008-37.738V24.178a16.678 16.678 0 0 1 13.174-16.314c9.135-1.959 20.349-3.664 28.527-3.664h19.125c30.183 0 51.6 15.978 51.6 41.912 0 12.213-4.55 21.417-12.571 27.452a7.8 7.8 0 0 0-.2 12.391c9.366 7.2 15.54 18.49 15.54 28.464.003 31.948-25.339 49.781-54.141 49.781zM935.31 30.6h-11.745a52.753 52.753 0 0 0-6.792.572A7.893 7.893 0 0 0 909.968 39v21.2a7.9 7.9 0 0 0 7.905 7.905h16.289c14.051 0 25.569-5.56 25.569-19.22 0-13.89-12.671-18.285-24.421-18.285zm0 62.054h-17.2a7.9 7.9 0 0 0-7.9 7.905V125.3c0 5.555 5.989 9.957 13.824 9.957h12.9c17.052 0 25.342-7.873 25.342-19.914-.011-17.136-8.534-22.691-26.966-22.691z" id="path101" transform="translate(-4.118 -2.602)"/></g></svg>